# xmcd CD database file
#
# Track frame offsets:
#	150
#	19153
#	41160
#	70595
#	89310
#	114756
#	136390
#	161384
#	179136
#	210543
#	229756
#	251682
#	267267
#
# Disc length: 3983 seconds
#
# Revision: 1
# Processed by: cddbd v1.5.2PL0 Copyright (c) Steve Scherf et al.
# Submitted via: CDex 1.51
#
DISCID=af0f8d0d
DTITLE=Dickmelk Dixieband - Revival 2008
DYEAR=2008
DGENRE=Jazz
TTITLE0=South
TTITLE1=Mein Papagei frisst keine harten Eier
TTITLE2=St. Louis Blues
TTITLE3=Royal Garden Blues
TTITLE4=Dickmelk Dixie
TTITLE5=Tiger Rack
TTITLE6=I can't give you anything but love
TTITLE7=Rollmops
TTITLE8=Saratoga Swing
TTITLE9=Choo choo Ch'boogie
TTITLE10=My blue heaven
TTITLE11=Tuxedo Junction
TTITLE12=Skokiaan
EXTD=YEAR: 2008
EXTT0=
EXTT1=
EXTT2=
EXTT3=
EXTT4=
EXTT5=
EXTT6=
EXTT7=
EXTT8=
EXTT9=
EXTT10=
EXTT11=
EXTT12=
PLAYORDER=
